<svg xmlns="http://www.w3.org/2000/svg" width="54.637" height="55.362" viewBox="0 0 54.637 55.362">
  <path id="Контур_79" data-name="Контур 79" d="M42.129-15.224H32.385V-26.95a1.661,1.661,0,0,0-1.608-1.627,1.659,1.659,0,0,0-1.606,1.627V-13.6a1.661,1.661,0,0,0,1.606,1.628H42.129A1.53,1.53,0,0,0,43.744-13.6,1.657,1.657,0,0,0,42.129-15.224ZM31.312-42.363A27.545,27.545,0,0,0,3.993-14.683,27.546,27.546,0,0,0,31.312,13,27.616,27.616,0,0,0,58.63-14.683,27.614,27.614,0,0,0,31.312-42.363Zm0,52.107a24.3,24.3,0,0,1-24.1-24.427,24.3,24.3,0,0,1,24.1-24.423,24.3,24.3,0,0,1,24.1,24.423A24.3,24.3,0,0,1,31.312,9.744Z" transform="translate(-3.993 42.363)"/>
</svg>
