<svg xmlns="http://www.w3.org/2000/svg" width="339.406" height="366.147" viewBox="0 0 339.406 366.147"><defs><style>.a,.b{fill:none;stroke:#231f20;stroke-miterlimit:10;}.a{stroke-width:1.098px;}.b{stroke-width:1.098px;}</style></defs><g transform="matrix(0.746, -0.666, 0.666, 0.746, -564.572, -302.024)"><path class="a" d="M116.848,819.424H230.4l102.425,51.829s63.692-107.689-63.112-148.8c0,0-57.322-17.378-104.223,13.888C118.851,767.434,116.848,808.447,116.848,819.424Z"/><path class="a" d="M207.754,835.889H93.109s.063,108.032,136.413,97.612Z"/><path class="a" d="M92.622,835.409l4.345,67.255S107.99,980.492,229.291,977.7l.308-45.074"/><path class="a" d="M232.035,852.354,326.453,903.3s-16.792,35.319-68.9,42.846Z"/><path class="a" d="M232.035,852.354l4.8,37.6L259.68,990.532"/><path class="a" d="M257.55,946.144l2.2,43.7s48.3-4.391,66.825-40.8l-.125-45.741"/><path class="a" d="M347.3,801.449s13.31,53.649-16.329,113.815l1.852-44.011"/><line class="b" y2="16.465" transform="translate(116.909 818.875)"/><path class="a" d="M212.779,857.659l17.2-.366.137-37.733"/><line class="a" x1="4.037" y1="3.054" transform="translate(326.612 913.379)"/><line class="a" x1="2.779" y1="1.098" transform="translate(229.977 856.985)"/></g></svg>