<svg xmlns="http://www.w3.org/2000/svg" width="12.594" height="14.166" viewBox="0 0 12.594 14.166">
  <path id="Контур_82" data-name="Контур 82" d="M1311.456,97.57a2.574,2.574,0,0,1,.757-.8,2.649,2.649,0,0,1,.348-.2l1.106-.439a.974.974,0,0,1,1.126.292l1.648,2.135a.791.791,0,0,1-.053,1.166l-1.165.792c-.624.423-.547,1.558.166,2.48l1.522,1.971a2.713,2.713,0,0,0,1.651,1.067,1.127,1.127,0,0,0,.8-.147l.021-.013,1.146-.779a.725.725,0,0,1,.516-.108,1.1,1.1,0,0,1,.689.424l1.648,2.136a.83.83,0,0,1-.054,1.088l-.773.831-.016.018a2.511,2.511,0,0,1-.308.247,3.273,3.273,0,0,1-2.353.434c-2.064-.307-4.5-1.994-6.36-4.4C1311.135,102.679,1310.361,99.362,1311.456,97.57Zm4.529,1.646a.383.383,0,0,0-.1-.285L1314.24,96.8a.265.265,0,0,0-.307-.078l-1.083.429a2,2,0,0,0-.235.136c-1.706,1.161-1.042,4.877,1.457,8.115,1.759,2.276,4.024,3.865,5.915,4.145a2.537,2.537,0,0,0,1.844-.319,1.844,1.844,0,0,0,.22-.176l.763-.822a.231.231,0,0,0,.016-.3l-1.647-2.136a.374.374,0,0,0-.262-.169l-1.154.787-.023.014a1.829,1.829,0,0,1-1.289.247,3.4,3.4,0,0,1-2.1-1.324l-1.523-1.972c-.958-1.24-.962-2.718-.014-3.361Z" transform="translate(-1310.968 -96.064)" fill="#70a000"/>
</svg>
