<svg xmlns="http://www.w3.org/2000/svg" width="18" height="12.001" viewBox="0 0 18 12.001"><defs><style>.a{fill:#70a000;}</style></defs><g transform="translate(-1347 -1781)"><g transform="translate(1339.405 1772.226)"><path d="M25.27,13.729h-.916l-.533-3.343a.338.338,0,0,0-.321-.3H19.788V9.13a.345.345,0,0,0-.329-.357H7.922A.343.343,0,0,0,7.6,9.13v9.428a.344.344,0,0,0,.327.361H9.583a2.088,2.088,0,0,0,1.994,1.855,2.088,2.088,0,0,0,1.992-1.855h6.092a2,2,0,0,0,3.985,0h1.622a.343.343,0,0,0,.327-.361v-4.47A.342.342,0,0,0,25.27,13.729ZM12.939,18.651a1.43,1.43,0,0,1-1.362,1.406,1.5,1.5,0,0,1,0-2.995,1.43,1.43,0,0,1,1.362,1.41C12.941,18.533,12.941,18.6,12.939,18.651Zm8.715,1.406a1.429,1.429,0,0,1-1.362-1.416,1.114,1.114,0,0,1,0-.16,1.375,1.375,0,1,1,1.362,1.577ZM24.943,18.2h-1.3a2,2,0,0,0-3.985,0H13.568a2.088,2.088,0,0,0-1.992-1.855A2.09,2.09,0,0,0,9.583,18.2H8.25V9.491H19.133v4.7a.329.329,0,1,0,.654,0V10.808h3.435l.535,3.341a.338.338,0,0,0,.323.3h.862Z"/></g><path class="a" d="M1359.066,1791.146h-6.092a2,2,0,0,1-3.985,0h-1.661a.345.345,0,0,1-.328-.361v-9.428a.343.343,0,0,1,.328-.356h11.536a.344.344,0,0,1,.328.356v.96h3.713a.339.339,0,0,1,.321.3l.533,3.344h.916a.342.342,0,0,1,.325.359v4.47a.343.343,0,0,1-.327.361h-1.623a2,2,0,0,1-3.985,0Zm.631-.439a1.167,1.167,0,0,0,0,.16,1.505,1.505,0,1,0,0-.16Zm-10.081.078a1.368,1.368,0,1,0,2.729.093c0-.053,0-.119,0-.18a1.368,1.368,0,1,0-2.729.087Zm13.435-.359h1.3v-3.753h-.862a.338.338,0,0,1-.323-.3l-.535-3.342h-3.435v3.384a.329.329,0,1,1-.654,0v-4.7h-10.884v8.708h1.334a2,2,0,0,1,3.985,0h6.092a2,2,0,0,1,3.985,0Z"/></g></svg>