<svg xmlns="http://www.w3.org/2000/svg" width="82.001" height="39.998" viewBox="0 0 82.001 39.998"><defs><style>.a{stroke:#d61d1d;stroke-miterlimit:10;stroke-width:0.194px;}.b{fill:#fff;}</style></defs><g transform="translate(-647 -2425.001)"><g transform="translate(637.376 2395.997)"><path class="a" d="M90.361,45.541H87.089L85.183,34.449a1.181,1.181,0,0,0-1.151-.977H70.759V30.287A1.182,1.182,0,0,0,69.585,29.1H28.328a1.178,1.178,0,0,0-1.17,1.186V61.559a1.182,1.182,0,0,0,1.17,1.193H34.27a7.2,7.2,0,0,0,14.251,0H70.308a7.2,7.2,0,0,0,14.249,0h5.8a1.179,1.179,0,0,0,1.168-1.193V46.727A1.172,1.172,0,0,0,90.361,45.541ZM47.893,62.447c-.3,3.169-3.441,5.492-6.48,5.652a6.07,6.07,0,0,1-6.3-5.98,6.331,6.331,0,0,1,6.3-6.074,6.531,6.531,0,0,1,6.48,5.752A5.648,5.648,0,0,1,47.893,62.447Zm29.544,5.587c-3.047,0-6.125-2.471-6.288-5.331-.008-.149-.008-.454,0-.575a6.295,6.295,0,0,1,12.584-.01C83.734,65.114,80.6,68.034,77.437,68.034Zm13.391-5.979H84.556c-.562-3.484-2.752-6.664-7.125-6.742-4.492-.08-6.561,3.259-7.124,6.742H48.521c-.559-3.484-2.362-6.608-7.128-6.742-4.224-.118-6.567,3.161-7.123,6.644H27.889V29.843h42.1V47.072c-.012.235.182.483.361.48a.447.447,0,0,0,.411-.48V34.221H84.52L86.428,45.39a1.093,1.093,0,0,0,1.157.886h3.243Z"/><path d="M23.22,39.111H10.8c-.646,0-1.2.16-1.17.6.033.48.525.595,1.17.595H23.22c.645,0,1.169-.105,1.167-.595C24.384,39.284,23.865,39.111,23.22,39.111Z"/><path d="M23.22,43.962H18.063c-.645,0-1.2.16-1.17.6.033.48.525.595,1.17.595H23.22c.645,0,1.169-.105,1.167-.595C24.384,44.135,23.865,43.962,23.22,43.962Z"/><path d="M23.22,48.765H13.15c-.645,0-1.2.16-1.17.6.033.48.525.595,1.17.595H23.22c.645,0,1.169-.105,1.167-.595C24.384,48.938,23.865,48.765,23.22,48.765Z"/></g><path class="b" d="M707.684,2458.748H685.9a7.2,7.2,0,0,1-14.252,0H665.7a1.182,1.182,0,0,1-1.17-1.192v-31.271a1.178,1.178,0,0,1,1.17-1.186h41.257a1.182,1.182,0,0,1,1.174,1.186v3.184h13.271a1.18,1.18,0,0,1,1.151.976l1.907,11.094h3.271a1.171,1.171,0,0,1,1.166,1.185v14.832a1.179,1.179,0,0,1-1.167,1.192h-5.8a7.2,7.2,0,0,1-14.25,0Zm-35.193-.633a6.07,6.07,0,0,0,6.3,5.98c3.038-.16,6.177-2.483,6.48-5.653a5.986,5.986,0,0,0,0-.649,6.531,6.531,0,0,0-6.48-5.752c-.092,0-.182-.007-.272-.007A6.362,6.362,0,0,0,672.491,2458.115Zm36.036.01c-.008.121-.008.426,0,.574.162,2.86,3.24,5.331,6.287,5.331,3.158,0,6.3-2.92,6.3-5.916a6.4,6.4,0,0,0-6.3-6.106h-.052A6.454,6.454,0,0,0,708.527,2458.125Zm6.125-6.817h.157c4.373.077,6.563,3.258,7.125,6.742H728.2v-15.779h-3.243a1.094,1.094,0,0,1-1.157-.886l-1.907-11.169h-13.76v12.852a.448.448,0,0,1-.411.48c-.18,0-.374-.245-.362-.48v-17.229h-42.1v32.114h6.381c.556-3.483,2.9-6.762,7.124-6.644,4.766.134,6.569,3.258,7.128,6.742h21.785c.557-3.442,2.584-6.742,6.966-6.743Zm-64.125-5.353c-.645,0-1.138-.116-1.171-.595-.03-.439.526-.6,1.171-.6H660.6c.645,0,1.164.173,1.166.6,0,.49-.521.595-1.166.595Zm4.913-4.8c-.645,0-1.138-.116-1.171-.595-.03-.439.526-.6,1.171-.6H660.6c.645,0,1.164.173,1.166.6,0,.49-.521.595-1.166.595Zm-7.267-4.852c-.645,0-1.138-.115-1.171-.595-.03-.438.526-.6,1.171-.6H660.6c.645,0,1.164.173,1.166.6,0,.49-.521.595-1.166.595Z"/></g></svg>