<svg xmlns="http://www.w3.org/2000/svg" width="66" height="66" viewBox="0 0 66 66"><defs><style>.a{fill:#fff;stroke:#000;stroke-linecap:round;stroke-linejoin:round;stroke-width:1.135px;}</style></defs><g transform="translate(-7.541 -7.541)"><path class="a" d="M55.806,8.108,67.968,20.27H43.642Z"/><path class="a" d="M50.191,8.108v5.616L43.642,20.27h-8.42V8.108Z"/><path class="a" d="M30.544,11.851l4.678,4.678V20.27h-13.1Z"/><path class="a" d="M8.108,8.111h3.153c1.734,0,3.55,1.779,4.033,3.957l1.822,8.2-1.822-8.2C14.811,9.89,13,8.111,11.261,8.111Z"/><path class="a" d="M32.773,67.9A5.068,5.068,0,1,1,27.7,62.837,5.068,5.068,0,0,1,32.773,67.9Z"/><path class="a" d="M66.552,67.9a5.068,5.068,0,1,1-5.069-5.067A5.07,5.07,0,0,1,66.552,67.9Z"/><path class="a" d="M26.606,62.965,24.324,52.7Z"/><path class="a" d="M56.415,67.9h0Z"/><path class="a" d="M72.973,20.27H17.118L24.324,52.7l40.542-4.055Z"/><line class="a" y2="17.514" transform="translate(44.716 26.473)"/><line class="a" x2="17.514" transform="translate(35.959 35.23)"/></g></svg>