<svg xmlns="http://www.w3.org/2000/svg" width="332.422" height="381.032" viewBox="0 0 332.422 381.032"><defs><style>.a{opacity:0.38;}.b,.c{fill:none;stroke:#231f20;stroke-miterlimit:10;}.b{stroke-width:1.3px;}.c{stroke-width:1.3px;}.d{fill:#b6fc12;}</style></defs><g class="a" transform="translate(-1710.296 -2613.49)"><g transform="matrix(0.962, -0.274, 0.274, 0.962, 1345.13, 1909.819)"><path class="b" d="M138.456,970.638H273l121.365,61.394s75.47-127.561-74.783-176.254c0,0-67.922-20.584-123.5,16.451C140.829,909.054,138.456,957.635,138.456,970.638Z"/><path class="b" d="M246.172,990.142H110.327s.074,127.968,161.639,115.625Z"/><path class="b" d="M109.75,989.573l5.148,79.666s13.062,92.189,156.793,88.879l.366-53.392"/><path class="b" d="M274.943,1009.645l111.878,60.345s-19.9,41.837-81.645,50.753Z"/><path class="b" d="M274.943,1009.645l5.691,44.534L307.7,1173.322"/><path class="b" d="M305.176,1120.743l2.611,51.759s57.232-5.2,79.182-48.33l-.148-54.182"/><path class="b" d="M411.521,949.346s15.771,63.55-19.348,134.818l2.194-52.132"/><line class="c" y2="19.504" transform="translate(138.528 969.988)"/><path class="b" d="M252.126,1015.93l20.378-.433.163-44.7"/><line class="b" x1="4.783" y1="3.618" transform="translate(387.01 1081.931)"/><line class="b" x1="3.293" y1="1.3" transform="translate(272.504 1015.131)"/></g><path class="d" d="M1748.462,2906.742l-26.769-75.212.925.327,130.446-37.111,55.833,102.965.443.156,14.271,51.451c-2.431.752-4.807,1.458-7.176,2.132-24.377,6.933-45.5,9.758-63.724,9.759C1772.671,2961.217,1748.462,2906.742,1748.462,2906.742Zm155.286-59.835-17.67-41.274,76.332,148.457Zm41.836,57.3-59.505-98.577,124.134,27.424,14.98,52.069c-9.3,47.487-62.925,68.15-62.925,68.15Zm68.081-59.72,5.591,2.171Zm-6.589-50-133.547-25.836-129.341,36.8,5.163,18.132-5.163-18.132-.069.02c-3.561-12.506-14.583-59.88,28.481-110.417,43.311-50.827,114.277-49.615,114.277-49.615,76.952,2.787,107.444,38.284,118.484,73.931,8.376,19.022,24.764,66.226,13.881,125.862ZM1873.251,2768.9l11.985,42.68.1.352-19.482,5.993Zm11.985,42.68,3.522.35ZM1886.078,2805.632Z"/></g></svg>