<svg xmlns="http://www.w3.org/2000/svg" width="53" height="73" viewBox="0 0 53 73"><defs><style>.a{fill:#fff;}</style></defs><g transform="translate(-1369 -2406)"><g transform="translate(1358.234 2405.411)"><path d="M49.1,21.782a11.83,11.83,0,1,0-11.83,11.774A11.837,11.837,0,0,0,49.1,21.782Zm-22.164-.037A10.471,10.471,0,1,1,37.4,32.166,10.476,10.476,0,0,1,26.932,21.745Z"/><path d="M10.766,73.589h53l-9.228-25.9H48.15c5.205-9.184,10.529-20.016,10.529-25.9a21.295,21.295,0,0,0-42.589,0c0,5.887,5.324,16.719,10.529,25.9h-6.27Zm1.793-1.377,5.068-14.168,11.552.074L27.65,67.885l15.317-.124,2.087,4.525ZM53.545,48.531,56.085,55.6l-7.3-7.146ZM17.666,22.012a19.787,19.787,0,1,1,39.571,0c0,9.737-15.819,34.385-20.023,41C33.01,56.4,17.666,31.749,17.666,22.012Zm9.426,26.833c4.259,7.3,10.174,16.265,10.174,16.265s5.989-9.157,10.248-16.34l9.167,8.58L61.973,72.36,46.7,72.2l-2.813-5.674H29.221l1.3-9.773L18.284,56.6l2.7-7.832Z"/></g><path class="a" d="M1369,2479l9.582-25.9h6.27c-5.206-9.184-10.529-20.016-10.529-25.9a21.295,21.295,0,0,1,42.589,0c0,5.887-5.323,16.719-10.529,25.9h6.389L1422,2479Zm7.518-16.986,12.239.148-1.3,9.773h14.669l2.813,5.674,15.269.162-5.292-15.009-9.167-8.58c-4.259,7.182-10.248,16.339-10.248,16.339s-5.914-8.966-10.174-16.266l-6.111-.074Zm-5.725,15.609,32.5.075-2.087-4.525-15.317.124,1.529-9.767-11.552-.075Zm5.108-50.2c0,9.737,15.344,34.385,19.548,41,4.2-6.616,20.023-31.264,20.023-41a19.786,19.786,0,1,0-39.571,0Zm38.418,33.583-2.539-7.065-4.765-.08Zm-30.649-33.813a11.831,11.831,0,1,1,11.83,11.774A11.838,11.838,0,0,1,1383.669,2427.194Zm1.5-.038a10.471,10.471,0,1,0,10.471-10.42A10.476,10.476,0,0,0,1385.166,2427.156Z"/></g></svg>