<svg xmlns="http://www.w3.org/2000/svg" width="268.055" height="278.405" viewBox="0 0 268.055 278.405"><defs><style>.a{fill:#b6fc12;}</style></defs><path class="a" d="M23.084,2772.52l-48.056-47.255.823-.093,85.379-76.228,80.357,57.625.394-.044,29.8,33.816q-2.345,2.192-4.662,4.261c-37.856,33.8-70.28,43.264-94.725,43.265C41.273,2787.867,23.084,2772.52,23.084,2772.52Zm95.864-102.635L90.315,2645.05l104.375-24.9,30.573,34.023c10.443,39.488-22.662,74.931-22.662,74.931l-30.758-31.117L90.315,2645.05l112.693,84.623ZM-17.506,2697.17l-.046.04c-7.314-8.185-33.148-40.1-19.076-94.341,14.153-54.55,68.491-79.769,68.491-79.769,59.464-26.227,95.7-10.5,117.23,12.5,13.373,11.36,43.22,41.171,56.94,90.467l-27.944-34.051L67.15,2621.587l-84.656,75.583L-6.9,2709.038Zm84.536-75.292,24.836,28,2.8-1.032-2.8,1.032.2.23-12.586,11.727Zm139.543,5.276-5.046.411Z" transform="translate(40.755 -2509.462)"/></svg>