<svg xmlns="http://www.w3.org/2000/svg" width="63" height="62.998" viewBox="0 0 63 62.998"><defs><style>.a{fill:#fff;}.b,.c{stroke:none;}.c{fill:#ed1c24;}</style></defs><g class="a" transform="translate(-283 -2051.008)"><path class="b" d="M314.5,2051.008a31.5,31.5,0,0,1,31.5,31.5c0,17.4-13.6,31.5-31,31.5.049-6.736,0-32,0-32s-29.63.063-32,0C283,2064.611,297.1,2051.008,314.5,2051.008Z"/><path class="c" d="M 314.4997863769531 2053.0078125 C 310.50048828125 2053.0078125 306.6307983398438 2053.763916015625 302.9980773925781 2055.255126953125 C 299.479248046875 2056.69970703125 296.3255004882813 2058.771728515625 293.6243286132813 2061.41357421875 C 288.5342407226563 2066.391845703125 285.537109375 2072.939697265625 285.0654907226563 2080.024658203125 C 286.4616088867188 2080.0302734375 288.7247314453125 2080.034423828125 292.3493041992188 2080.034423828125 C 301.7200927734375 2080.034423828125 314.8638916015625 2080.0068359375 314.9955444335938 2080.006591796875 L 316.9959106445313 2080.00244140625 L 316.9997863769531 2082.002685546875 C 317.0002136230469 2082.23388671875 317.0404052734375 2103.251220703125 317.0101318359375 2111.9384765625 C 324.0845336914063 2111.4609375 330.6220092773438 2108.465087890625 335.5939025878906 2103.3818359375 C 338.2357788085938 2100.6806640625 340.307861328125 2097.52685546875 341.75244140625 2094.00830078125 C 343.2437438964844 2090.37548828125 343.9999084472656 2086.505859375 343.9999084472656 2082.506591796875 C 343.9999084472656 2078.5234375 343.22021484375 2074.66064453125 341.6824340820313 2071.025146484375 C 340.1967163085938 2067.5126953125 338.0693664550781 2064.357666015625 335.3594970703125 2061.64794921875 C 332.6495971679688 2058.938232421875 329.4945068359375 2056.810791015625 325.9819030761719 2055.3251953125 C 322.3462524414063 2053.78759765625 318.483154296875 2053.0078125 314.4997863769531 2053.0078125 M 314.4997863769531 2051.0078125 C 331.8966674804688 2051.0078125 345.9999084472656 2065.110595703125 345.9999084472656 2082.506591796875 C 345.9999084472656 2099.903564453125 332.3966674804688 2114.006103515625 314.9997863769531 2114.006103515625 C 315.0487976074219 2107.2705078125 314.9997863769531 2082.006591796875 314.9997863769531 2082.006591796875 C 314.9997863769531 2082.006591796875 301.8306884765625 2082.034423828125 292.3493347167969 2082.034423828125 C 287.6077880859375 2082.034423828125 283.7898254394531 2082.027587890625 282.9997863769531 2082.006591796875 C 282.9997863769531 2064.610595703125 297.102783203125 2051.0078125 314.4997863769531 2051.0078125 Z"/></g></svg>